<svg id="artwork" xmlns="http://www.w3.org/2000/svg" viewBox="0 0 512 512"><title>ID_Card</title><g id="ID_Card"><polygon points="253.8 123.4 253.8 436.02 137.9 436.02 137.9 138.34 177.99 138.34 202.12 138.34 202.12 123.4 253.8 123.4" style="fill:#c6d0dc"/><polyline points="324.58 134.15 324.58 157.73 350 157.73 386.7 157.73 386.7 455.41 167.64 455.41 167.64 157.73 207.73 157.73 231.86 157.73 231.86 134.15" style="fill:#fff"/><polygon points="268.82 49.3 268.82 29.23 219.98 29.23 219.98 145.27 253.8 145.27 253.8 165.34 302.64 165.34 302.64 49.3 268.82 49.3" style="fill:#f7c648"/><rect x="196.81" y="350.1" width="160.24" height="18.84" style="fill:#c6d0dc"/><polygon points="351.52 350.1 279.55 350.1 202.82 350.1 202.82 189.15 351.52 189.15 351.52 350.1" style="fill:#59aee4"/><polygon points="351.52 350.1 340.01 350.1 327.74 350.1 327.74 189.15 351.52 189.15 351.52 350.1" style="fill:#548fbf"/><path d="M329.21,350.1H224.76V301.2a23.85,23.85,0,0,1,23.85-23.85h56.75a23.85,23.85,0,0,1,23.85,23.85Z" style="fill:#fff"/><circle cx="276.98" cy="245.38" r="28.68" transform="translate(-92.39 267.73) rotate(-45)" style="fill:#fff"/><polygon points="278.07 308.61 292.93 277.89 263.21 277.89 278.07 308.61" style="fill:#fabb1e"/><rect x="278.22" y="49.3" width="24.42" height="116.04" style="fill:#db9923"/><polygon points="330.58 151.73 330.58 134.15 318.58 134.15 318.58 163.73 380.7 163.73 380.7 449.41 173.64 449.41 173.64 163.73 237.86 163.73 237.86 134.15 225.86 134.15 225.86 151.73 161.64 151.73 161.64 428.26 142.48 428.26 142.48 142.58 206.71 142.58 206.71 113 194.71 113 194.71 130.58 130.48 130.58 130.48 440.26 161.64 440.26 161.64 461.41 392.7 461.41 392.7 151.73 330.58 151.73"/><rect x="271.34" y="325.81" width="11.65" height="11.65"/><rect x="195.59" y="375.61" width="48.81" height="12"/><rect x="310.07" y="375.61" width="48.81" height="12"/><rect x="310.07" y="398.16" width="48.81" height="12"/><rect x="310.07" y="420.7" width="48.81" height="12"/><rect x="195.59" y="398.16" width="64.32" height="12"/><rect x="195.59" y="420.7" width="64.32" height="12"/><path d="M196.63,356.9h160.7V184H196.63Zm125.11-12h-10.8V313.73h-12V344.9H256.6V313.36h-12V344.9h-12V300.15a17.88,17.88,0,0,1,17.86-17.86h8.35l18,36.67,20.41-36.67h6.64a17.88,17.88,0,0,1,17.85,17.86Zm-44.57-77.78a21.78,21.78,0,1,1,21.77-21.78A21.8,21.8,0,0,1,277.17,267.12Zm6.35,15.17-6,10.82-5.33-10.82ZM208.63,196h136.7v149H333.74V300.15a29.89,29.89,0,0,0-29.85-29.86h-4a33.78,33.78,0,1,0-45.47,0h-4a29.9,29.9,0,0,0-29.86,29.86V344.9h-12Z"/><path d="M226,35.23h36.84V43.3h-15v128h60.84V43.3H274.82V23.23H214V123.67h12ZM296.64,55.3v104H259.8V55.3Z"/><rect x="267.24" y="140.5" width="21.96" height="12"/></g></svg>